<svg width="168" height="90" viewBox="0 0 168 90" fill="none" xmlns="http://www.w3.org/2000/svg">
<path d="M31.3259 8.93338L29.1711 21.913H27.3712L22.358 12.3938H22.2439L20.6532 21.913H18.6948L20.8496 8.93338H22.6622L27.6817 18.4653H27.8021L29.3865 8.93338H31.3259Z" fill="white"/>
<path d="M39.7104 8.93338L37.5555 21.913H35.5972L37.752 8.93338H39.7104Z" fill="white"/>
<path d="M43.9769 21.913L46.1317 8.93338H54.2694L53.9905 10.6192H47.8112L47.1521 14.5739H52.9068L52.6279 16.2534H46.8732L46.2141 20.2272H52.4695L52.1906 21.913H43.9769Z" fill="white"/>
<path d="M60.4547 8.93338H62.8313L65.303 19.023H65.4551L71.2478 8.93338H73.6244L71.4696 21.913H69.6063L71.1717 12.5205H71.0513L65.6643 21.894H64.1115L61.8553 12.5142H61.7349L60.1631 21.913H58.2998L60.4547 8.93338Z" fill="white"/>
<path d="M81.9994 8.93338L79.8446 21.913H77.8862L80.041 8.93338H81.9994Z" fill="white"/>
<path d="M86.2659 21.913L88.4208 8.93338H96.5584L96.2795 10.6192H90.1003L89.4411 14.5739H95.1958L94.9169 16.2534H89.1623L88.5032 20.2272H94.7585L94.4796 21.913H86.2659Z" fill="white"/>
<path d="M112.808 13.1543H110.869C110.86 12.7318 110.782 12.36 110.634 12.0389C110.486 11.7135 110.283 11.441 110.026 11.2213C109.772 10.9974 109.474 10.8284 109.132 10.7143C108.79 10.6002 108.42 10.5432 108.023 10.5432C107.258 10.5432 106.54 10.7375 105.868 11.1262C105.196 11.5149 104.624 12.0811 104.151 12.8247C103.677 13.5684 103.352 14.4747 103.175 15.5436C103.001 16.583 103.023 17.4555 103.238 18.1611C103.454 18.8667 103.817 19.4012 104.328 19.7645C104.844 20.1237 105.463 20.3032 106.185 20.3032C106.608 20.3032 107.02 20.2483 107.421 20.1385C107.827 20.0244 108.203 19.8575 108.549 19.6378C108.895 19.4181 109.202 19.1498 109.468 18.8329C109.738 18.5118 109.95 18.1442 110.102 17.7301H112.066C111.855 18.3723 111.557 18.9596 111.173 19.492C110.788 20.0244 110.334 20.4849 109.81 20.8736C109.286 21.2623 108.712 21.5623 108.086 21.7736C107.461 21.9848 106.8 22.0905 106.103 22.0905C104.958 22.0905 103.982 21.8179 103.175 21.2729C102.372 20.7236 101.795 19.942 101.444 18.9279C101.098 17.9139 101.039 16.7055 101.267 15.3028C101.499 13.9381 101.943 12.7677 102.598 11.7917C103.257 10.8115 104.06 10.0615 105.006 9.5418C105.957 9.01788 106.984 8.75592 108.086 8.75592C108.784 8.75592 109.422 8.85521 110 9.05379C110.579 9.24815 111.078 9.53546 111.496 9.91572C111.919 10.2918 112.244 10.7523 112.472 11.2973C112.7 11.8382 112.812 12.4571 112.808 13.1543Z" fill="white"/>
<path d="M117.282 21.913L119.437 8.93338H121.395L120.375 15.1317H120.533L126.998 8.93338H129.463L123.271 14.7767L127.327 21.913H124.97L121.75 16.114L119.925 17.8822L119.24 21.913H117.282Z" fill="white"/>
<path d="M136.816 8.93338L134.661 21.913H132.703L134.858 8.93338H136.816Z" fill="white"/>
<path d="M141.083 21.913L143.238 8.93338H151.375L151.096 10.6192H144.917L144.258 14.5739H150.013L149.734 16.2534H143.979L143.32 20.2272H149.575L149.296 21.913H141.083Z" fill="white"/>
<path d="M145.914 75.5076L150.996 79.6856L150.506 80.5336L145.425 76.3556L145.914 75.5076Z" fill="white"/>
<path d="M146.984 73.6545L147.578 72.6254L152.565 74.0775L152.603 74.0116L149.683 68.9809L150.277 67.9518L155.358 72.1298L154.893 72.9366L151.217 69.9106L151.187 69.9628L153.899 74.6388L153.511 75.3112L148.885 73.9432L148.855 73.9953L152.532 77.0256L152.066 77.8324L146.984 73.6545Z" fill="white"/>
<path d="M156.427 70.2786L151.346 66.1007L152.502 64.0973C152.754 63.6619 153.034 63.3602 153.343 63.1923C153.653 63.0226 153.974 62.9685 154.304 63.03C154.635 63.0896 154.958 63.2476 155.271 63.504C155.583 63.7621 155.822 64.0661 155.988 64.4159C156.154 64.7628 156.226 65.14 156.206 65.5477C156.183 65.9542 156.047 66.3743 155.796 66.8079L154.999 68.1883L154.349 67.6552L155.1 66.3544C155.259 66.0781 155.346 65.8183 155.359 65.575C155.372 65.3287 155.327 65.1035 155.222 64.8995C155.116 64.6944 154.968 64.5146 154.776 64.3602C154.582 64.2018 154.389 64.1022 154.195 64.0612C154 64.0192 153.81 64.05 153.626 64.1534C153.443 64.2551 153.271 64.4458 153.109 64.7258L152.494 65.7906L156.917 69.4307L156.427 70.2786Z" fill="white"/>
<path d="M159.957 57.8011C160.491 58.2411 160.887 58.7258 161.145 59.2552C161.404 59.7828 161.528 60.3179 161.517 60.8605C161.506 61.4002 161.362 61.908 161.088 62.3836C160.802 62.8794 160.439 63.2349 160 63.4499C159.561 63.662 159.078 63.7178 158.553 63.6172C158.027 63.5155 157.489 63.239 156.939 62.7877C156.405 62.3477 156.009 61.8639 155.75 61.3364C155.49 60.8059 155.366 60.2694 155.377 59.7267C155.389 59.1823 155.533 58.6704 155.81 58.191C156.094 57.6989 156.455 57.3477 156.894 57.1374C157.331 56.9242 157.815 56.869 158.343 56.9717C158.87 57.0733 159.408 57.3498 159.957 57.8011ZM159.376 58.5669C158.971 58.2331 158.589 58.0247 158.23 57.9416C157.869 57.8556 157.547 57.8779 157.262 58.0084C156.977 58.139 156.744 58.3607 156.563 58.6735C156.371 59.0065 156.275 59.367 156.275 59.7551C156.277 60.1413 156.379 60.5299 156.583 60.9207C156.787 61.3115 157.099 61.6786 157.52 62.0219C157.924 62.3575 158.306 62.5669 158.665 62.65C159.025 62.733 159.347 62.7093 159.632 62.5788C159.917 62.4454 160.149 62.2222 160.33 61.9094C160.521 61.5782 160.617 61.2201 160.617 60.8349C160.617 60.4468 160.516 60.0579 160.314 59.6681C160.11 59.2773 159.798 58.9103 159.376 58.5669Z" fill="white"/>
<path d="M163.415 58.1747L158.334 53.9967L159.49 51.9934C159.742 51.558 160.018 51.2527 160.319 51.0777C160.619 50.8998 160.931 50.8381 161.253 50.8924C161.575 50.9439 161.893 51.0984 162.208 51.3558C162.518 51.6129 162.748 51.9107 162.899 52.2491C163.051 52.5857 163.11 52.9527 163.076 53.35C163.041 53.7445 162.898 54.1595 162.646 54.5949L161.77 56.1125L161.113 55.5648L161.945 54.124C162.104 53.8478 162.198 53.5945 162.226 53.3643C162.254 53.1341 162.223 52.9236 162.133 52.7327C162.045 52.54 161.905 52.3664 161.713 52.212C161.519 52.0536 161.33 51.9575 161.144 51.9237C160.957 51.8888 160.776 51.9272 160.602 52.0388C160.426 52.1494 160.258 52.3437 160.097 52.6218L159.482 53.6866L163.905 57.3267L163.415 58.1747ZM162.724 53.5163L165.819 54.0116L165.261 54.9776L162.18 54.4576L162.724 53.5163Z" fill="white"/>
<path d="M162.08 49.1943L161.419 48.6521L163.931 44.3024L164.591 44.8446L163.579 46.5982L168 50.234L167.512 51.0792L163.091 47.4434L162.08 49.1943Z" fill="white"/>
<path d="M6.17543 80.7452L1.79053 44.24H10.2217L12.0754 69.6047H12.3785L23.2338 44.24H30.4528L32.9127 69.6582H33.2335L43.465 44.24H51.8961L35.3903 80.7452H27.8682L24.9093 56.8778H24.6241L13.6975 80.7452H6.17543Z" fill="white"/>
<path d="M84.413 62.9917C83.7476 66.8894 82.4582 70.1989 80.545 72.9201C78.6437 75.6414 76.3205 77.7091 73.5755 79.1232C70.8424 80.5373 67.8953 81.2443 64.7344 81.2443C61.419 81.2443 58.5611 80.4897 56.1607 78.9806C53.7722 77.4714 52.0431 75.2908 50.9737 72.4389C49.9042 69.575 49.7022 66.1229 50.3676 62.0826C51.0093 58.1731 52.2868 54.8577 54.2 52.1364C56.1131 49.4033 58.4482 47.3237 61.2051 45.8977C63.962 44.4598 66.9269 43.7409 70.0997 43.7409C73.3913 43.7409 76.2314 44.5014 78.62 46.0225C81.0204 47.5435 82.7494 49.7419 83.807 52.6177C84.8765 55.4815 85.0785 58.9395 84.413 62.9917ZM76.7305 62.0826C77.1464 59.5753 77.1286 57.472 76.677 55.7727C76.2374 54.0615 75.4293 52.7662 74.2529 51.8868C73.0764 51.0075 71.591 50.5678 69.7967 50.5678C67.8478 50.5678 66.0594 51.055 64.4314 52.0294C62.8153 53.0039 61.4487 54.418 60.3317 56.2718C59.2265 58.1137 58.4601 60.3536 58.0323 62.9917C57.6045 65.511 57.6164 67.6143 58.0679 69.3017C58.5314 70.9891 59.3573 72.2666 60.5456 73.134C61.7458 73.9896 63.2371 74.4174 65.0196 74.4174C66.9566 74.4174 68.7272 73.9421 70.3314 72.9914C71.9475 72.0289 73.3082 70.6326 74.4133 68.8026C75.5184 66.9607 76.2908 64.7207 76.7305 62.0826Z" fill="white"/>
<path d="M86.7793 80.7452L87.5636 76.1643L110.041 50.6035H91.7346L92.804 44.24H120.753L119.987 48.821L97.492 74.3818H115.798L114.729 80.7452H86.7793Z" fill="white"/>
<path d="M124.572 44.24H133.217L138.939 59.9615H139.331L150.222 44.24H158.867L141.649 67.8401L139.492 80.7452H131.827L133.984 67.8401L124.572 44.24Z" fill="white"/>
<path d="M55.9416 37.3461L1.30667 37.346L1.30665 31.7122C1.30665 29.864 2.80484 28.3658 4.65297 28.3658H55.9416V37.3461Z" fill="black" stroke="white" stroke-width="2.23088"/>
<path d="M112.244 28.3663L166.879 28.3664L166.879 34.0002C166.879 35.8484 165.381 37.3466 163.533 37.3466H112.244V28.3663Z" fill="#F7CB2A" stroke="white" stroke-width="2.23088"/>
<path d="M55.9413 28.3663L112.244 28.3664L112.244 37.3466H55.9413V28.3663Z" fill="#DD242A"/>
<path d="M112.244 28.3664L113.359 28.3664L113.359 27.251L112.244 27.251L112.244 28.3664ZM55.9413 28.3663L55.9413 27.2508L54.8258 27.2508V28.3663H55.9413ZM55.9413 37.3466H54.8258V38.462H55.9413V37.3466ZM112.244 37.3466V38.462C112.539 38.462 112.823 38.3445 113.032 38.1353C113.242 37.9261 113.359 37.6424 113.359 37.3466L112.244 37.3466ZM112.244 28.3664L112.244 27.251L55.9413 27.2508L55.9413 28.3663L55.9413 29.4817L112.244 29.4818L112.244 28.3664ZM55.9413 28.3663H54.8258V37.3466H55.9413H57.0567V28.3663H55.9413ZM55.9413 37.3466V38.462H112.244V37.3466V36.2311H55.9413V37.3466ZM112.244 37.3466L113.359 37.3466L113.359 28.3664L112.244 28.3664L111.128 28.3664L111.128 37.3466L112.244 37.3466Z" fill="white"/>
</svg>
